<svg data-v-63b5b45a="" width="21" height="18" viewBox="0 0 21 18" xmlns="http://www.w3.org/2000/svg" class="icon site-icon"><path data-v-63b5b45a="" fill="#0062D1" fill-rule="evenodd" d="M12.956 5.684l-.04.08-.472-.043.1-.432.412.395m-1.459-1.84l-.663-.29c.452-.216.55-.17.663.29m1.683.133l-.11.02-2.015-2.098 2.394 1.091c-.271.228-.428.554-.269.987M10.334 1.93l.564-.205.078.074c-.11.127-.208.269-.339.366-.025.02-.175-.133-.303-.235m.018.619c.517.025.862.358 1.221.667l-.078.14-1.209-.688.066-.119M8.885 2.42c.202.051.393.085.57.157.03.012.03.253-.013.274-.146.076-.318.101-.49.149l-.067-.58m2.267 10.777c-.182-.2-.338-.423-.5-.64-.276-.366-.293-.75-.065-1.145.07-.122.152-.253.17-.388.035-.271-.13-.335-.376-.359-.18-.018-.463-.107-.503-.23-.189-.588-.728-.62-1.152-.773-.428-.153-.745-.336-.924-.78-.129-.318-.336-.603-.508-.903l-.05.018.167.739c-.112-.174-.185-.25-.215-.34-.207-.623-.481-1.237-.576-1.878-.055-.371.183-.788.292-1.183.016-.057.079-.112.073-.163a18.42 18.42 0 0 0-.13-.918c-.072-.432-.29-.504-.633-.22-.111.093-.232.172-.348.258l-.096-.101c.225-.28.41-.608.682-.826.39-.314.724-.756 1.386-.535.344.115.715.18 1.074.291.308.095.695-.076 1.047-.13L9.95 2.88l.515.339c.045.25-.04.443-.388.46-.091.004-.188.079-.266.142-.425.343-.399.572.086.822.533.274.533.274.701.638.053-.291.102-.583.16-.873.033-.168.079-.333.119-.5.14.065.276.143.422.193.376.13.691.347.952.65.09.106.186.207.335.373l-1.124.517-.005.152c.459-.47.5.087.737.173-.026.05-.04.09-.048.09-.687-.114-.782.618-1.207.877-.035.022-.08.083-.073.112.09.337-.14.482-.34.672-.085.082-.098.266-.1.405-.003.117.057.236.09.354l-.092.05c-.055-.068-.126-.128-.162-.205-.168-.358-.384-.435-.752-.27a.495.495 0 0 1-.247.03c-.368-.04-.555.09-.624.449-.08.408.103.87.385.92.087.015.205-.061.284-.126.11-.09.198-.209.295-.315l.103.053-.142.613c.119.035.238.046.327.104.08.053.18.154.184.239.028.482.425.716.835.475.6-.353 1.192-.206 1.736.098.37.208.659.564 1.022.792.251.157.563.222.855.305.451.128.51.226.304.651-.152.314-.269.674-.5.915-.506.527-1.079.986-1.617 1.482-.458.422-1.224.548-1.254 1.382-.353-.038-.461-.232-.383-.535.109-.425.244-.844.355-1.27.111-.42.019-.79-.277-1.115m4.934-8.278l-.128.09-.47-.757.098-.07.5.737m.487 3.061c.028-.165.062-.333.055-.498a.946.946 0 0 1 .424-.863c.071-.05.24-.06.293-.01.144.137.313.3.361.482.263 1.008.355 2.031.134 3.148-.233-.259-.4-.224-.585-.023-.163.177-.298.147-.441-.085-.42-.685-.365-1.41-.24-2.15m-.288-2.535c-.02-.281-.034-.563-.056-.935.747.402.751 1.15 1.09 1.682l-.452-.537-.078 1.066c-.338-.259-.543-.46-.46-.847.028-.133-.033-.285-.044-.43M10.857 1C6.525 1 3 4.589 3 9s3.525 8 7.857 8c4.333 0 7.857-3.589 7.857-8s-3.524-8-7.857-8"></path></svg>